<svg width="50" height="43" viewBox="0 0 50 43" fill="none" xmlns="http://www.w3.org/2000/svg">
<path d="M32.6923 15.7437H17.3077C13.0663 15.7437 9.61539 19.1946 9.61539 23.436C9.61539 27.6773 13.0663 31.1283 17.3077 31.1283H23.0769C23.6077 31.1283 24.0385 30.6975 24.0385 30.1667C24.0385 29.636 23.6077 29.2052 23.0769 29.2052H17.3077C14.126 29.2052 11.5385 26.6177 11.5385 23.436C11.5385 20.2542 14.126 17.6667 17.3077 17.6667H32.6923C35.874 17.6667 38.4615 20.2542 38.4615 23.436C38.4615 23.9667 38.8923 24.3975 39.4231 24.3975C39.9538 24.3975 40.3846 23.9667 40.3846 23.436C40.3846 19.1946 36.9337 15.7437 32.6923 15.7437ZM36.0144 34.5764L32.2885 30.8504C32.1058 30.6677 31.8606 30.5687 31.6087 30.5687C31.5481 30.5687 31.4875 30.5745 31.4269 30.586C31.1125 30.6466 30.85 30.8581 30.725 31.1514L29.9548 32.9485L26.6433 24.1177L35.474 27.4293L33.6769 28.1994C33.3837 28.3244 33.1721 28.5869 33.1115 28.9014C33.051 29.2139 33.15 29.5369 33.376 29.7629L37.1019 33.4889L36.0144 34.5764ZM35.7394 29.4071L38.4327 28.2533C38.7933 28.0985 39.024 27.7398 39.0144 27.3475C39.0058 26.9552 38.7587 26.6071 38.3913 26.4687L25.3375 21.5735C24.9846 21.4437 24.5865 21.5283 24.3202 21.7946C24.0539 22.061 23.9673 22.4591 24.099 22.8119L28.9942 35.8658C29.1327 36.2331 29.4808 36.4802 29.8731 36.4889C30.2596 36.5129 30.624 36.2677 30.7788 35.9071L31.9327 33.2139L35.3346 36.6158C35.5221 36.8033 35.7683 36.8975 36.0144 36.8975C36.2596 36.8975 36.5058 36.8033 36.6942 36.6158L39.1413 34.1687C39.5173 33.7927 39.5173 33.1841 39.1413 32.8091L35.7394 29.4071ZM48.0769 37.8591C48.0769 39.4494 46.7827 40.7437 45.1923 40.7437H4.80769C3.21731 40.7437 1.92308 39.4494 1.92308 37.8591V9.97444H45.1923C45.7231 9.97444 46.1538 9.54367 46.1538 9.0129C46.1538 8.48213 45.7231 8.05136 45.1923 8.05136H1.92308V5.16675C1.92308 3.57636 3.21731 2.28213 4.80769 2.28213H45.1923C46.7827 2.28213 48.0769 3.57636 48.0769 5.16675V37.8591ZM45.1923 0.359055H4.80769C2.15673 0.359055 0 2.51579 0 5.16675V37.8591C0 40.51 2.15673 42.6667 4.80769 42.6667H45.1923C47.8433 42.6667 50 40.51 50 37.8591V5.16675C50 2.51579 47.8433 0.359055 45.1923 0.359055ZM13.1827 4.48405C13.1346 4.44558 13.0865 4.39754 13.0385 4.36869C12.9808 4.33023 12.9231 4.30135 12.8654 4.28211C12.8077 4.25327 12.75 4.23407 12.6923 4.22446C12.5673 4.19561 12.4327 4.19561 12.3077 4.22446C12.25 4.23407 12.1923 4.25327 12.1346 4.28211C12.0769 4.30135 12.0192 4.33023 11.9615 4.36869C11.9135 4.39754 11.8654 4.44558 11.8173 4.48405C11.7308 4.5802 11.6635 4.67638 11.6154 4.80138C11.5673 4.91677 11.5385 5.04175 11.5385 5.16675C11.5385 5.29175 11.5673 5.41673 11.6154 5.53211C11.6635 5.6475 11.7308 5.7533 11.8173 5.84945C11.8654 5.88791 11.9135 5.93596 11.9615 5.96481C12.0192 6.00327 12.0769 6.03215 12.1346 6.05138C12.1923 6.08023 12.25 6.09942 12.3077 6.10904C12.375 6.11865 12.4423 6.12828 12.5 6.12828C12.5577 6.12828 12.625 6.11865 12.6923 6.10904C12.75 6.09942 12.8077 6.08023 12.8654 6.05138C12.9231 6.03215 12.9808 6.00327 13.0385 5.96481C13.0865 5.93596 13.1346 5.88791 13.1827 5.84945C13.2692 5.7533 13.3365 5.6475 13.3846 5.53211C13.4423 5.41673 13.4615 5.29175 13.4615 5.16675C13.4615 5.04175 13.4423 4.91677 13.3846 4.80138C13.3365 4.67638 13.2692 4.5802 13.1827 4.48405ZM9.33654 4.48405C9.05769 4.21481 8.63461 4.12827 8.28846 4.28211C8.17307 4.33019 8.06731 4.39751 7.97116 4.48405C7.88462 4.5802 7.81731 4.686 7.76924 4.80138C7.72116 4.91677 7.69231 5.04175 7.69231 5.16675C7.69231 5.41675 7.79808 5.66676 7.97116 5.84945C8.06731 5.93599 8.17307 6.0033 8.28846 6.05138C8.40384 6.10907 8.52885 6.12828 8.65385 6.12828C8.90385 6.12828 9.15384 6.02253 9.33654 5.84945C9.50961 5.66676 9.61539 5.41675 9.61539 5.16675C9.61539 5.04175 9.59615 4.91677 9.53846 4.80138C9.49038 4.686 9.42307 4.5802 9.33654 4.48405ZM5.49038 4.48405C5.22115 4.21481 4.78846 4.12827 4.4423 4.28211C4.32692 4.33019 4.22116 4.39751 4.125 4.48405C4.03846 4.5802 3.97116 4.686 3.92308 4.80138C3.875 4.91677 3.84615 5.04175 3.84615 5.16675C3.84615 5.41675 3.95193 5.66676 4.125 5.84945C4.22116 5.93599 4.32692 6.0033 4.4423 6.05138C4.55769 6.10907 4.68269 6.12828 4.80769 6.12828C5.05769 6.12828 5.30769 6.02253 5.49038 5.84945C5.66346 5.66676 5.76923 5.41675 5.76923 5.16675C5.76923 5.04175 5.74038 4.91677 5.6923 4.80138C5.64423 4.686 5.57692 4.5802 5.49038 4.48405Z" fill="#0374C8"/>
</svg>
