<svg width="50" height="40" viewBox="0 0 50 40" fill="none" xmlns="http://www.w3.org/2000/svg">
<path d="M25 21.8096C22.0455 21.8096 19.6429 19.4069 19.6429 16.4525C19.6429 13.498 22.0455 11.0953 25 11.0953C27.9545 11.0953 30.3571 13.498 30.3571 16.4525C30.3571 19.4069 27.9545 21.8096 25 21.8096ZM46.5679 15.7391L43.1134 14.7043C42.7982 14.6105 42.4581 14.6962 42.2259 14.9284L37.5 19.6542L32.7741 14.9284C32.5491 14.7034 32.2232 14.6185 31.9161 14.6998C31.1312 11.6069 28.3321 9.30961 25 9.30961C21.6679 9.30961 18.8688 11.6069 18.0839 14.6998C17.7768 14.6194 17.4509 14.7034 17.2259 14.9284L12.5 19.6542L7.77411 14.9284C7.54197 14.6962 7.20267 14.6096 6.8866 14.7043L3.40714 15.7471C1.36964 16.4212 0 18.3194 0 20.4703V29.8453C0 30.3391 0.399107 30.7382 0.892857 30.7382C1.38661 30.7382 1.78571 30.3391 1.78571 29.8453V20.4703C1.78571 19.0909 2.66249 17.8739 3.94464 17.4498L6.88838 16.5676L11.8687 21.548C12.2179 21.8971 12.7821 21.8971 13.1313 21.548L17.875 16.8051C18.0607 20.5792 21.1812 23.5953 25 23.5953C28.8188 23.5953 31.9393 20.5792 32.125 16.8051L36.8688 21.548C37.2179 21.8971 37.7821 21.8971 38.1312 21.548L43.1116 16.5676L46.0312 17.4417C47.3375 17.8739 48.2143 19.0909 48.2143 20.4703V29.8453C48.2143 30.3391 48.6134 30.7382 49.1071 30.7382C49.6009 30.7382 50 30.3391 50 29.8453V20.4703C50 18.3194 48.6304 16.4212 46.5679 15.7391ZM12.5 2.16675C15.4545 2.16675 17.8571 4.56943 17.8571 7.52389C17.8571 10.4784 15.4545 12.881 12.5 12.881C9.54554 12.881 7.14286 10.4784 7.14286 7.52389C7.14286 4.56943 9.54554 2.16675 12.5 2.16675ZM12.5 14.6667C16.4384 14.6667 19.6429 11.4623 19.6429 7.52389C19.6429 3.5855 16.4384 0.381035 12.5 0.381035C8.56161 0.381035 5.35714 3.5855 5.35714 7.52389C5.35714 11.4623 8.56161 14.6667 12.5 14.6667ZM5.35714 21.8096C4.86339 21.8096 4.46429 22.2087 4.46429 22.7025V29.8453C4.46429 30.3391 4.86339 30.7382 5.35714 30.7382C5.85089 30.7382 6.25 30.3391 6.25 29.8453V22.7025C6.25 22.2087 5.85089 21.8096 5.35714 21.8096ZM37.5 2.16675C40.4545 2.16675 42.8571 4.56943 42.8571 7.52389C42.8571 10.4784 40.4545 12.881 37.5 12.881C34.5455 12.881 32.1429 10.4784 32.1429 7.52389C32.1429 4.56943 34.5455 2.16675 37.5 2.16675ZM37.5 14.6667C41.4384 14.6667 44.6429 11.4623 44.6429 7.52389C44.6429 3.5855 41.4384 0.381035 37.5 0.381035C33.5616 0.381035 30.3571 3.5855 30.3571 7.52389C30.3571 11.4623 33.5616 14.6667 37.5 14.6667ZM44.6429 21.8096C44.1491 21.8096 43.75 22.2087 43.75 22.7025V29.8453C43.75 30.3391 44.1491 30.7382 44.6429 30.7382C45.1366 30.7382 45.5357 30.3391 45.5357 29.8453V22.7025C45.5357 22.2087 45.1366 21.8096 44.6429 21.8096ZM17.8571 30.7382C17.3634 30.7382 16.9643 31.1373 16.9643 31.631V38.7739C16.9643 39.2676 17.3634 39.6667 17.8571 39.6667C18.3509 39.6667 18.75 39.2676 18.75 38.7739V31.631C18.75 31.1373 18.3509 30.7382 17.8571 30.7382ZM32.1429 30.7382C31.6491 30.7382 31.25 31.1373 31.25 31.631V38.7739C31.25 39.2676 31.6491 39.6667 32.1429 39.6667C32.6366 39.6667 33.0357 39.2676 33.0357 38.7739V31.631C33.0357 31.1373 32.6366 30.7382 32.1429 30.7382ZM34.0679 24.6676L30.6134 23.6328C30.2982 23.54 29.9589 23.6248 29.7259 23.8569L25 28.5828L20.2741 23.8569C20.042 23.6248 19.7027 23.5391 19.3866 23.6328L15.9071 24.6757C13.8696 25.3498 12.5 27.248 12.5 29.3989V38.7739C12.5 39.2676 12.8991 39.6667 13.3929 39.6667C13.8866 39.6667 14.2857 39.2676 14.2857 38.7739V29.3989C14.2857 28.0194 15.1625 26.8025 16.4446 26.3784L19.3884 25.4962L24.3687 30.4766C24.7179 30.8257 25.2822 30.8257 25.6313 30.4766L30.6116 25.4962L33.5312 26.3703C34.8375 26.8025 35.7143 28.0194 35.7143 29.3989V38.7739C35.7143 39.2676 36.1134 39.6667 36.6071 39.6667C37.1009 39.6667 37.5 39.2676 37.5 38.7739V29.3989C37.5 27.248 36.1304 25.3498 34.0679 24.6676Z" fill="#0374C8"/>
</svg>
