<svg width="50" height="43" viewBox="0 0 50 43" fill="none" xmlns="http://www.w3.org/2000/svg">
<path d="M37.5 24.25V17.1071C39.4696 17.1071 41.0714 18.7089 41.0714 20.6786C41.0714 22.6482 39.4696 24.25 37.5 24.25ZM35.7143 37.6429C35.7143 38.6277 34.9134 39.4286 33.9286 39.4286C32.9438 39.4286 32.1429 38.6277 32.1429 37.6429V3.71428C32.1429 2.72946 32.9438 1.92857 33.9286 1.92857C34.9134 1.92857 35.7143 2.72946 35.7143 3.71428V37.6429ZM30.3571 34.4964C28.0723 32.367 23.3313 29.0143 16.0714 28.75V12.6072C23.3313 12.3429 28.0723 8.99018 30.3571 6.86071V34.4964ZM14.2857 28.7143H6.25C3.78839 28.7143 1.78571 26.7116 1.78571 24.25V17.1071C1.78571 14.6455 3.78839 12.6429 6.25 12.6429H14.2857V28.7143ZM14.2857 40.3214C14.2857 40.8143 13.8848 41.2143 13.3929 41.2143C10.9313 41.2143 8.92857 39.2116 8.92857 36.75V30.5H14.2857V40.3214ZM42.8571 20.6786C42.8571 17.7241 40.4545 15.3214 37.5 15.3214V3.71428C37.5 1.74464 35.8982 0.142857 33.9286 0.142857C31.9589 0.142857 30.3571 1.74464 30.3571 3.71428V4.2866C29.3982 5.41249 24.292 10.8571 15.1786 10.8571H6.25C2.80357 10.8571 0 13.6616 0 17.1071V24.25C0 27.6955 2.80357 30.5 6.25 30.5H7.14286V36.75C7.14286 40.1955 9.94643 43 13.3929 43C14.8696 43 16.0714 41.7982 16.0714 40.3214V30.5366C24.617 30.8812 29.4304 35.983 30.3571 37.0705V37.6429C30.3571 39.6125 31.9589 41.2143 33.9286 41.2143C35.8982 41.2143 37.5 39.6125 37.5 37.6429V26.0357C40.4545 26.0357 42.8571 23.633 42.8571 20.6786ZM49.1071 19.7857H45.5357C45.0429 19.7857 44.6429 20.1848 44.6429 20.6786C44.6429 21.1723 45.0429 21.5714 45.5357 21.5714H49.1071C49.6 21.5714 50 21.1723 50 20.6786C50 20.1848 49.6 19.7857 49.1071 19.7857ZM41.9643 12.6429C42.1929 12.6429 42.4214 12.5554 42.5955 12.3813L45.2741 9.70268C45.6232 9.35358 45.6232 8.78928 45.2741 8.44017C44.925 8.09106 44.3607 8.09106 44.0116 8.44017L41.333 11.1187C40.9839 11.4678 40.9839 12.0321 41.333 12.3813C41.5071 12.5554 41.7357 12.6429 41.9643 12.6429ZM42.5955 28.9759C42.2464 28.6268 41.6821 28.6268 41.333 28.9759C40.9839 29.325 40.9839 29.8893 41.333 30.2384L44.0116 32.917C44.1857 33.0911 44.4143 33.1786 44.6429 33.1786C44.8714 33.1786 45.1 33.0911 45.2741 32.917C45.6232 32.5679 45.6232 32.0036 45.2741 31.6545L42.5955 28.9759Z" fill="#0374C8"/>
</svg>
